<svg width="24" height="24" viewBox="0 0 24 24" fill="none" xmlns="http://www.w3.org/2000/svg">
  <path fill-rule="evenodd" clip-rule="evenodd" d="M12 2.5C6.753 2.5 2.5 6.42 2.5 11.259c0 2.757 1.374 5.214 3.52 6.821.183.137.302.338.326.558l.265 2.333c.075.665.797 1.063 1.402.77l2.578-1.25a.83.83 0 0 1 .576-.058c.923.248 1.896.381 2.833.381 5.247 0 9.5-3.92 9.5-8.759S17.247 2.5 12 2.5Zm5.69 6.957-3.11 4.93a1.5 1.5 0 0 1-2.174.403l-2.48-1.86a.5.5 0 0 0-.603.004l-3.353 2.55c-.445.338-1.03-.195-.732-.664l3.11-4.93a1.5 1.5 0 0 1 2.174-.403l2.48 1.86a.5.5 0 0 0 .603-.004l3.353-2.55c.445-.338 1.03.195.732.664Z" fill="currentColor"/>
</svg>
